<svg xmlns="http://www.w3.org/2000/svg" x="0px" y="0px" viewBox="0 0 167 167">
    <style type="text/css">
        [class^=chevron] {
            transition: all ease-in-out 0.25s;
            fill: #00B2E3;
            opacity: 0.3;
            animation: pulse-chevron 6s infinite cubic-bezier(0.16, 1, 0.3, 1);
        }

        .node {
            transition: all ease-in-out 0.25s;
            fill: #00B2E3;
            animation: pulse-node 6s infinite cubic-bezier(0.16, 1, 0.3, 1);
        }

        .core {
            transition: all ease-out 0.5s;
            fill: #00B2E3;
            animation: pulse-core 6s forwards infinite cubic-bezier(0.16, 1, 0.3, 1);
            animation-delay: 0.7s;
        }

        .chevronGroup-1 { animation-delay: 0.1s; }
        .chevronGroup-2 { animation-delay: 0.2s; }
        .chevronGroup-3 { animation-delay: 0.3s; }
        .chevronGroup-4 { animation-delay: 0.4s; }
        .chevronGroup-5 { animation-delay: 0.5s; }
        .chevronGroup-6 { animation-delay: 0.6s; }

        @keyframes pulse-node {
            0% { fill: #56DAFF; }
            25% { fill: #00B2E3; }
            100% { fill: #00B2E3; }
        }

        @keyframes pulse-chevron {
            0% { fill: #56DAFF; opacity: 1; }
            25% { fill: #00B2E3; opacity: 0.3; }
            100% { fill: #00B2E3; opacity: 0.3; }
        }

        @keyframes pulse-core {
            0% { fill: #00B2E3; }
            40% { fill: #56DAFF; filter: drop-shadow(0 0 10px #00B2E3); }
            100% { fill: #00B2E3; }
        }

        @keyframes delay-chevron-animation {
            0% {
                opacity: 1;
            }
            50% {
                opacity: 1;
            }
            50.01% {
                opacity: 0;
            }
            100% {
                opacity: 0;
            }
        }
    </style>
    <g>
        <!-- Gradient Circle-->
        <linearGradient
            id="gradient"
            gradientUnits="userSpaceOnUse"
            x1="83.4617"
            y1="110.4307"
            x2="83.4617"
            y2="60.4811"
            gradientTransform="matrix(1 0 0 -1 0 168.9082)"
        >
            <stop offset="0" style="stop-color:#103454;stop-opacity:0"/>
            <stop offset="0.7906" style="stop-color:#103454"/>
        </linearGradient>
        <!-- Gradient Core -->
        <path class="core" d="M108.4,83.5c0,13.8-11.2,25-25,25c-13.8,0-25-11.2-25-25c0-13.8,11.2-25,25-25 C97.3,58.5,108.4,69.7,108.4,83.5z"/>
        <!-- Gradient Overlay -->
        <path fill="url(#gradient)" style="fill-opacity: 0.4;" d="M108.4,83.5c0,13.8-11.2,25-25,25c-13.8,0-25-11.2-25-25c0-13.8,11.2-25,25-25 C97.3,58.5,108.4,69.7,108.4,83.5z"/>

        <!-- Outer Nodes -->
        <path class="node" d="M83.5,0c5,0,9.1,4.1,9.1,9.1s-4.1,9.1-9.1,9.1c-5,0-9.1-4.1-9.1-9.1S78.4,0,83.5,0z"/>
        <path class="node" d="M125.2,11.2c4.4,2.5,5.9,8.1,3.3,12.5C126,28,120.4,29.5,116,27c-4.4-2.5-5.9-8.1-3.3-12.5 C115.2,10.2,120.8,8.7,125.2,11.2z"/>
        <path class="node" d="M155.7,41.7c2.5,4.4,1,10-3.3,12.5c-4.4,2.5-10,1-12.5-3.3c-2.5-4.4-1-10,3.3-12.5 C147.6,35.9,153.2,37.4,155.7,41.7z"/>
        <path class="node" d="M167,83.5c0,5-4.1,9.1-9.1,9.1c-5,0-9.1-4.1-9.1-9.1c0-5,4.1-9.1,9.1-9.1C162.8,74.3,167,78.4,167,83.5z"/>
        <path class="node" d="M139.9,116c2.5-4.4,8.1-5.9,12.5-3.3c4.4,2.5,5.9,8.1,3.3,12.5c-2.5,4.4-8.1,5.9-12.5,3.3 C138.9,126,137.4,120.4,139.9,116z"/>
        <path class="node" d="M116,139.9c4.4-2.5,10-1,12.5,3.3c2.5,4.4,1,10-3.3,12.5c-4.4,2.5-10,1-12.5-3.3 C110.2,148,111.7,142.4,116,139.9z"/>
        <path class="node" d="M83.5,148.6c5,0,9.1,4.1,9.1,9.1c0,5-4.1,9.1-9.1,9.1c-5,0-9.1-4.1-9.1-9.1C74.3,152.7,78.4,148.6,83.5,148.6z"/>
        <path class="node" d="M50.9,139.9c4.4,2.5,5.9,8.1,3.3,12.5c-2.5,4.4-8.1,5.9-12.5,3.3c-4.4-2.5-5.9-8.1-3.3-12.5 C40.9,138.9,46.5,137.4,50.9,139.9z"/>
        <path class="node" d="M27,116c2.5,4.4,1,10-3.3,12.5c-4.4,2.5-10,1-12.5-3.3c-2.5-4.4-1-10,3.3-12.5C18.9,110.2,24.5,111.7,27,116z"/>
        <path class="node" d="M18.3,83.5c0,5-4.1,9.1-9.1,9.1S0,88.5,0,83.5c0-5,4.1-9.1,9.1-9.1S18.3,78.4,18.3,83.5z"/>
        <path class="node" d="M11.2,41.7c2.5-4.4,8.1-5.9,12.5-3.3c4.4,2.5,5.9,8.1,3.3,12.5c-2.5,4.4-8.1,5.9-12.5,3.3S8.7,46.1,11.2,41.7z"/>
        <path class="node" d="M41.7,11.2c4.4-2.5,10-1,12.5,3.3c2.5,4.4,1,10-3.3,12.5c-4.4,2.5-10,1-12.5-3.3 C35.9,19.3,37.4,13.7,41.7,11.2z"/>

        <g>
            <!-- Chevron Group 1 -->
            <path class="chevronGroup-1" d="M83.8,28.9l3.8-4.1c0.2-0.2,0.2-0.6,0-0.9c-0.2-0.2-0.6-0.2-0.9,0l-2.9,3.2L80.9,24c-0.2-0.2-0.6-0.3-0.9,0 c-0.2,0.2-0.3,0.6,0,0.9L83.8,28.9z"/>
            <path class="chevronGroup-1" d="M111,36.4l5.4-1.7c0.3-0.1,0.5-0.4,0.4-0.8c-0.1-0.3-0.4-0.5-0.8-0.4l-4.1,1.3l-0.9-4.2 c-0.1-0.3-0.4-0.5-0.7-0.5c-0.3,0.1-0.5,0.4-0.5,0.7L111,36.4z"/>
            <path class="chevronGroup-1" d="M130.8,56.5l5.5,1.2c0.3,0.1,0.7-0.1,0.7-0.5c0.1-0.3-0.1-0.7-0.5-0.7l-4.2-0.9l1.3-4.1 c0.1-0.3-0.1-0.7-0.4-0.8c-0.3-0.1-0.7,0.1-0.8,0.4L130.8,56.5z"/>
            <path class="chevronGroup-1" d="M138,83.8l4.1,3.8c0.2,0.2,0.6,0.2,0.9,0c0.2-0.2,0.2-0.6,0-0.9l-3.2-2.9l3.2-2.9c0.2-0.2,0.3-0.6,0-0.9 c-0.2-0.2-0.6-0.3-0.9,0L138,83.8z"/>
            <path class="chevronGroup-1" d="M130.8,110.5l5.5-1.2c0.3-0.1,0.7,0.1,0.7,0.5c0.1,0.3-0.1,0.7-0.5,0.7l-4.2,0.9l1.3,4.1 c0.1,0.3-0.1,0.7-0.4,0.8c-0.3,0.1-0.7-0.1-0.8-0.4L130.8,110.5z"/>
            <path class="chevronGroup-1" d="M111,130.5l5.4,1.7c0.3,0.1,0.5,0.4,0.4,0.8c-0.1,0.3-0.4,0.5-0.8,0.4l-4.1-1.3l-0.9,4.2 c-0.1,0.3-0.4,0.5-0.7,0.5c-0.3-0.1-0.5-0.4-0.5-0.7L111,130.5z"/>
            <path class="chevronGroup-1" d="M83.8,138l3.8,4.1c0.2,0.2,0.2,0.6,0,0.9c-0.2,0.2-0.6,0.2-0.9,0l-2.9-3.2l-2.9,3.2c-0.2,0.2-0.6,0.3-0.9,0 c-0.2-0.2-0.3-0.6,0-0.9L83.8,138z"/>
            <path class="chevronGroup-1" d="M56.5,130.8l1.2,5.5c0.1,0.3-0.1,0.7-0.5,0.7c-0.3,0.1-0.7-0.1-0.7-0.5l-0.9-4.2l-4.1,1.3 c-0.3,0.1-0.7-0.1-0.8-0.4c-0.1-0.3,0.1-0.7,0.4-0.8L56.5,130.8z"/>
            <path class="chevronGroup-1" d="M36.4,111l-1.7,5.4c-0.1,0.3-0.4,0.5-0.8,0.4s-0.5-0.4-0.4-0.8l1.3-4.1l-4.2-0.9c-0.3-0.1-0.5-0.4-0.5-0.7 c0.1-0.3,0.4-0.5,0.7-0.5L36.4,111z"/>
            <path class="chevronGroup-1" d="M28.9,83.8l-4.1,3.8c-0.2,0.2-0.6,0.2-0.9,0c-0.2-0.2-0.2-0.6,0-0.9l3.2-2.9L24,80.9c-0.2-0.2-0.3-0.6,0-0.9 c0.2-0.2,0.6-0.3,0.9,0L28.9,83.8z"/>
            <path class="chevronGroup-1" d="M36.4,55.9l-1.7-5.4c-0.1-0.3-0.4-0.5-0.8-0.4c-0.3,0.1-0.5,0.4-0.4,0.8l1.3,4.1L30.6,56 c-0.3,0.1-0.5,0.4-0.5,0.7c0.1,0.3,0.4,0.5,0.7,0.5L36.4,55.9z"/>
            <path class="chevronGroup-1" d="M56.5,36.1l1.2-5.5c0.1-0.3-0.1-0.7-0.5-0.7c-0.3-0.1-0.7,0.1-0.7,0.5l-0.9,4.2l-4.1-1.3 c-0.3-0.1-0.7,0.1-0.8,0.4c-0.1,0.3,0.1,0.7,0.4,0.8L56.5,36.1z"/>

            <!-- Chevron Group 2 -->
            <path class="chevronGroup-2" d="M83.8,33.8l3.8-4.1c0.2-0.2,0.2-0.6,0-0.9c-0.2-0.2-0.6-0.2-0.9,0L83.8,32l-2.9-3.2c-0.2-0.2-0.6-0.3-0.9,0 c-0.2,0.2-0.3,0.6,0,0.9L83.8,33.8z"/>
            <path class="chevronGroup-2" d="M108.6,40.6l5.4-1.7c0.3-0.1,0.5-0.4,0.4-0.8c-0.1-0.3-0.4-0.5-0.8-0.4l-4.1,1.3l-0.9-4.2 c-0.1-0.3-0.4-0.5-0.7-0.5c-0.3,0.1-0.5,0.4-0.5,0.7L108.6,40.6z"/>
            <path class="chevronGroup-2" d="M126.6,58.9l5.5,1.2c0.3,0.1,0.7-0.1,0.7-0.5c0.1-0.3-0.1-0.7-0.5-0.7l-4.2-0.9l1.3-4.1 c0.1-0.3-0.1-0.7-0.4-0.8c-0.3-0.1-0.7,0.1-0.8,0.4L126.6,58.9z"/>
            <path class="chevronGroup-2" d="M133.1,83.8l4.1,3.8c0.2,0.2,0.6,0.2,0.9,0c0.2-0.2,0.2-0.6,0-0.9l-3.2-2.9l3.2-2.9c0.2-0.2,0.3-0.6,0-0.9 c-0.2-0.2-0.6-0.3-0.9,0L133.1,83.8z"/>
            <path class="chevronGroup-2" d="M126.6,108l5.5-1.2c0.3-0.1,0.7,0.1,0.7,0.5c0.1,0.3-0.1,0.7-0.5,0.7l-4.2,0.9l1.3,4.1 c0.1,0.3-0.1,0.7-0.4,0.8c-0.3,0.1-0.7-0.1-0.8-0.4L126.6,108z"/>
            <path class="chevronGroup-2" d="M108.6,126.3l5.4,1.7c0.3,0.1,0.5,0.4,0.4,0.8s-0.4,0.5-0.8,0.4l-4.1-1.3l-0.9,4.2c-0.1,0.3-0.4,0.5-0.7,0.5 c-0.3-0.1-0.5-0.4-0.5-0.7L108.6,126.3z"/>
            <path class="chevronGroup-2" d="M83.8,133.1l3.8,4.1c0.2,0.2,0.2,0.6,0,0.9c-0.2,0.2-0.6,0.2-0.9,0l-2.9-3.2l-2.9,3.2c-0.2,0.2-0.6,0.3-0.9,0 c-0.2-0.2-0.3-0.6,0-0.9L83.8,133.1z"/>
            <path class="chevronGroup-2" d="M58.9,126.6l1.2,5.5c0.1,0.3-0.1,0.7-0.5,0.7c-0.3,0.1-0.7-0.1-0.7-0.5l-0.9-4.2l-4.1,1.3 c-0.3,0.1-0.7-0.1-0.8-0.4s0.1-0.7,0.4-0.8L58.9,126.6z"/>
            <path class="chevronGroup-2" d="M40.6,108.5l-1.7,5.4c-0.1,0.3-0.4,0.5-0.8,0.4s-0.5-0.4-0.4-0.8l1.3-4.1l-4.2-0.9c-0.3-0.1-0.5-0.4-0.5-0.7 c0.1-0.3,0.4-0.5,0.7-0.5L40.6,108.5z"/>
            <path class="chevronGroup-2" d="M33.8,83.8l-4.1,3.8c-0.2,0.2-0.6,0.2-0.9,0c-0.2-0.2-0.2-0.6,0-0.9l3.2-2.9l-3.2-2.9c-0.2-0.2-0.3-0.6,0-0.9 c0.2-0.2,0.6-0.3,0.9,0L33.8,83.8z"/>
            <path class="chevronGroup-2" d="M40.6,58.4L38.9,53c-0.1-0.3-0.4-0.5-0.8-0.4c-0.3,0.1-0.5,0.4-0.4,0.8l1.3,4.1l-4.2,0.9 c-0.3,0.1-0.5,0.4-0.5,0.7c0.1,0.3,0.4,0.5,0.7,0.5L40.6,58.4z"/>
            <path class="chevronGroup-2" d="M58.9,40.3l1.2-5.5c0.1-0.3-0.1-0.7-0.5-0.7c-0.3-0.1-0.7,0.1-0.7,0.5L58,38.7l-4.1-1.3 c-0.3-0.1-0.7,0.1-0.8,0.4c-0.1,0.3,0.1,0.7,0.4,0.8L58.9,40.3z"/>

            <!-- Chevron Group 3 -->
            <path class="chevronGroup-3" d="M83.8,38.7l3.8-4.1c0.2-0.2,0.2-0.6,0-0.9c-0.2-0.2-0.6-0.2-0.9,0l-2.9,3.2l-2.9-3.2c-0.2-0.2-0.6-0.3-0.9,0 c-0.2,0.2-0.3,0.6,0,0.9L83.8,38.7z"/>
            <path class="chevronGroup-3" d="M106.1,44.8l5.4-1.7c0.3-0.1,0.5-0.4,0.4-0.8c-0.1-0.3-0.4-0.5-0.8-0.4l-4.1,1.3l-0.9-4.2 c-0.1-0.3-0.4-0.5-0.7-0.5c-0.3,0.1-0.5,0.4-0.5,0.7L106.1,44.8z"/>
            <path class="chevronGroup-3" d="M122.4,61.3l5.5,1.2c0.3,0.1,0.7-0.1,0.7-0.5c0.1-0.3-0.1-0.7-0.5-0.7l-4.2-0.9l1.3-4.1 c0.1-0.3-0.1-0.7-0.4-0.8c-0.3-0.1-0.7,0.1-0.8,0.4L122.4,61.3z"/>
            <path class="chevronGroup-3" d="M128.2,83.8l4.1,3.8c0.2,0.2,0.6,0.2,0.9,0c0.2-0.2,0.2-0.6,0-0.9l-3.2-2.9l3.2-2.9c0.2-0.2,0.3-0.6,0-0.9 c-0.2-0.2-0.6-0.3-0.9,0L128.2,83.8z"/>
            <path class="chevronGroup-3" d="M122.4,105.6l5.5-1.2c0.3-0.1,0.7,0.1,0.7,0.5c0.1,0.3-0.1,0.7-0.5,0.7l-4.2,0.9l1.3,4.1 c0.1,0.3-0.1,0.7-0.4,0.8s-0.7-0.1-0.8-0.4L122.4,105.6z"/>
            <path class="chevronGroup-3" d="M106.1,122.1l5.4,1.7c0.3,0.1,0.5,0.4,0.4,0.8c-0.1,0.3-0.4,0.5-0.8,0.4l-4.1-1.3l-0.9,4.2 c-0.1,0.3-0.4,0.5-0.7,0.5c-0.3-0.1-0.5-0.4-0.5-0.7L106.1,122.1z"/>
            <path class="chevronGroup-3" d="M83.8,128.2l3.8,4.1c0.2,0.2,0.2,0.6,0,0.9c-0.2,0.2-0.6,0.2-0.9,0l-2.9-3.2l-2.9,3.2c-0.2,0.2-0.6,0.3-0.9,0 c-0.2-0.2-0.3-0.6,0-0.9L83.8,128.2z"/>
            <path class="chevronGroup-3" d="M61.3,122.4l1.2,5.5c0.1,0.3-0.1,0.7-0.5,0.7c-0.3,0.1-0.7-0.1-0.7-0.5l-0.9-4.2l-4.1,1.3 c-0.3,0.1-0.7-0.1-0.8-0.4c-0.1-0.3,0.1-0.7,0.4-0.8L61.3,122.4z"/>
            <path class="chevronGroup-3" d="M44.8,106.1l-1.7,5.4c-0.1,0.3-0.4,0.5-0.8,0.4c-0.3-0.1-0.5-0.4-0.4-0.8l1.3-4.1l-4.2-0.9 c-0.3-0.1-0.5-0.4-0.5-0.7c0.1-0.3,0.4-0.5,0.7-0.5L44.8,106.1z"/>
            <path class="chevronGroup-3" d="M38.7,83.8l-4.1,3.8c-0.2,0.2-0.6,0.2-0.9,0c-0.2-0.2-0.2-0.6,0-0.9l3.2-2.9l-3.2-2.9c-0.2-0.2-0.3-0.6,0-0.9 c0.2-0.2,0.6-0.3,0.9,0L38.7,83.8z"/>
            <path class="chevronGroup-3" d="M44.8,60.8l-1.7-5.4c-0.1-0.3-0.4-0.5-0.8-0.4c-0.3,0.1-0.5,0.4-0.4,0.8l1.3,4.1l-4.2,0.9 c-0.3,0.1-0.5,0.4-0.5,0.7c0.1,0.3,0.4,0.5,0.7,0.5L44.8,60.8z"/>
            <path class="chevronGroup-3" d="M61.3,44.5l1.2-5.5c0.1-0.3-0.1-0.7-0.5-0.7c-0.3-0.1-0.7,0.1-0.7,0.5L60.4,43l-4.1-1.3 c-0.3-0.1-0.7,0.1-0.8,0.4c-0.1,0.3,0.1,0.7,0.4,0.8L61.3,44.5z"/>

            <!-- Chevron Group 4 -->
            <path class="chevronGroup-4" d="M83.8,43.5l3.8-4.1c0.2-0.2,0.2-0.6,0-0.9c-0.2-0.2-0.6-0.2-0.9,0l-2.9,3.2l-2.9-3.2c-0.2-0.2-0.6-0.3-0.9,0 c-0.2,0.2-0.3,0.6,0,0.9L83.8,43.5z"/>
            <path class="chevronGroup-4" d="M103.7,49l5.4-1.7c0.3-0.1,0.5-0.4,0.4-0.8c-0.1-0.3-0.4-0.5-0.8-0.4l-4.1,1.3l-0.9-4.2 c-0.1-0.3-0.4-0.5-0.7-0.5c-0.3,0.1-0.5,0.4-0.5,0.7L103.7,49z"/>
            <path class="chevronGroup-4" d="M118.2,63.8l5.5,1.2c0.3,0.1,0.7-0.1,0.7-0.5c0.1-0.3-0.1-0.7-0.5-0.7l-4.2-0.9l1.3-4.1 c0.1-0.3-0.1-0.7-0.4-0.8c-0.3-0.1-0.7,0.1-0.8,0.4L118.2,63.8z"/>
            <path class="chevronGroup-4" d="M123.4,83.8l4.1,3.8c0.2,0.2,0.6,0.2,0.9,0c0.2-0.2,0.2-0.6,0-0.9l-3.2-2.9l3.2-2.9c0.2-0.2,0.3-0.6,0-0.9 c-0.2-0.2-0.6-0.3-0.9,0L123.4,83.8z"/>
            <path class="chevronGroup-4" d="M118.2,103.1l5.5-1.2c0.3-0.1,0.7,0.1,0.7,0.5c0.1,0.3-0.1,0.7-0.5,0.7l-4.2,0.9l1.3,4.1 c0.1,0.3-0.1,0.7-0.4,0.8s-0.7-0.1-0.8-0.4L118.2,103.1z"/>
            <path class="chevronGroup-4" d="M103.7,117.9l5.4,1.7c0.3,0.1,0.5,0.4,0.4,0.8s-0.4,0.5-0.8,0.4l-4.1-1.3l-0.9,4.2c-0.1,0.3-0.4,0.5-0.7,0.5 c-0.3-0.1-0.5-0.4-0.5-0.7L103.7,117.9z"/>
            <path class="chevronGroup-4" d="M83.8,123.4l3.8,4.1c0.2,0.2,0.2,0.6,0,0.9c-0.2,0.2-0.6,0.2-0.9,0l-2.9-3.2l-2.9,3.2c-0.2,0.2-0.6,0.3-0.9,0 c-0.2-0.2-0.3-0.6,0-0.9L83.8,123.4z"/>
            <path class="chevronGroup-4" d="M63.8,118.2l1.2,5.5c0.1,0.3-0.1,0.7-0.5,0.7c-0.3,0.1-0.7-0.1-0.7-0.5l-0.9-4.2l-4.1,1.3 c-0.3,0.1-0.7-0.1-0.8-0.4c-0.1-0.3,0.1-0.7,0.4-0.8L63.8,118.2z"/>
            <path class="chevronGroup-4" d="M49,103.7l-1.7,5.4c-0.1,0.3-0.4,0.5-0.8,0.4c-0.3-0.1-0.5-0.4-0.4-0.8l1.3-4.1l-4.2-0.9 c-0.3-0.1-0.5-0.4-0.5-0.7c0.1-0.3,0.4-0.5,0.7-0.5L49,103.7z"/>
            <path class="chevronGroup-4" d="M43.5,83.8l-4.1,3.8c-0.2,0.2-0.6,0.2-0.9,0c-0.2-0.2-0.2-0.6,0-0.9l3.2-2.9l-3.2-2.9c-0.2-0.2-0.3-0.6,0-0.9 c0.2-0.2,0.6-0.3,0.9,0L43.5,83.8z"/>
            <path class="chevronGroup-4" d="M49,63.2l-1.7-5.4c-0.1-0.3-0.4-0.5-0.8-0.4c-0.3,0.1-0.5,0.4-0.4,0.8l1.3,4.1l-4.2,0.9 c-0.3,0.1-0.5,0.4-0.5,0.7c0.1,0.3,0.4,0.5,0.7,0.5L49,63.2z"/>
            <path class="chevronGroup-4" d="M63.8,48.7l1.2-5.5c0.1-0.3-0.1-0.7-0.5-0.7c-0.3-0.1-0.7,0.1-0.7,0.5l-0.9,4.2l-4.1-1.3 c-0.3-0.1-0.7,0.1-0.8,0.4c-0.1,0.3,0.1,0.7,0.4,0.8L63.8,48.7z"/>

            <!-- Chevron Group 5 -->
            <path class="chevronGroup-5" d="M83.8,48.4l3.8-4.1c0.2-0.2,0.2-0.6,0-0.9c-0.2-0.2-0.6-0.2-0.9,0l-2.9,3.2l-2.9-3.2c-0.2-0.2-0.6-0.3-0.9,0 c-0.2,0.2-0.3,0.6,0,0.9L83.8,48.4z"/>
            <path class="chevronGroup-5" d="M101.2,53.3l5.4-1.7c0.3-0.1,0.5-0.4,0.4-0.8c-0.1-0.3-0.4-0.5-0.8-0.4l-4.1,1.3l-0.9-4.2 c-0.1-0.3-0.4-0.5-0.7-0.5c-0.3,0.1-0.5,0.4-0.5,0.7L101.2,53.3z"/>
            <path class="chevronGroup-5" d="M114,66.2l5.5,1.2c0.3,0.1,0.7-0.1,0.7-0.5c0.1-0.3-0.1-0.7-0.5-0.7l-4.2-0.9l1.3-4.1 c0.1-0.3-0.1-0.7-0.4-0.8c-0.3-0.1-0.7,0.1-0.8,0.4L114,66.2z"/>
            <path class="chevronGroup-5" d="M118.5,83.8l4.1,3.8c0.2,0.2,0.6,0.2,0.9,0c0.2-0.2,0.2-0.6,0-0.9l-3.2-2.9l3.2-2.9c0.2-0.2,0.3-0.6,0-0.9 c-0.2-0.2-0.6-0.3-0.9,0L118.5,83.8z"/>
            <path class="chevronGroup-5" d="M114,100.7l5.5-1.2c0.3-0.1,0.7,0.1,0.7,0.5c0.1,0.3-0.1,0.7-0.5,0.7l-4.2,0.9l1.3,4.1 c0.1,0.3-0.1,0.7-0.4,0.8s-0.7-0.1-0.8-0.4L114,100.7z"/>
            <path class="chevronGroup-5" d="M101.2,113.6l5.4,1.7c0.3,0.1,0.5,0.4,0.4,0.8s-0.4,0.5-0.8,0.4l-4.1-1.3l-0.9,4.2c-0.1,0.3-0.4,0.5-0.7,0.5 c-0.3-0.1-0.5-0.4-0.5-0.7L101.2,113.6z"/>
            <path class="chevronGroup-5" d="M83.8,118.5l3.8,4.1c0.2,0.2,0.2,0.6,0,0.9c-0.2,0.2-0.6,0.2-0.9,0l-2.9-3.2l-2.9,3.2c-0.2,0.2-0.6,0.3-0.9,0 c-0.2-0.2-0.3-0.6,0-0.9L83.8,118.5z"/>
            <path class="chevronGroup-5" d="M66.2,113.9l1.2,5.5c0.1,0.3-0.1,0.7-0.5,0.7c-0.3,0.1-0.7-0.1-0.7-0.5l-0.9-4.2l-4.1,1.3 c-0.3,0.1-0.7-0.1-0.8-0.4c-0.1-0.3,0.1-0.7,0.4-0.8L66.2,113.9z"/>
            <path class="chevronGroup-5" d="M53.3,101.2l-1.7,5.4c-0.1,0.3-0.4,0.5-0.8,0.4c-0.3-0.1-0.5-0.4-0.4-0.8l1.3-4.1l-4.2-0.9 c-0.3-0.1-0.5-0.4-0.5-0.7c0.1-0.3,0.4-0.5,0.7-0.5L53.3,101.2z"/>
            <path class="chevronGroup-5" d="M48.4,83.8l-4.1,3.8c-0.2,0.2-0.6,0.2-0.9,0c-0.2-0.2-0.2-0.6,0-0.9l3.2-2.9l-3.2-2.9c-0.2-0.2-0.3-0.6,0-0.9 c0.2-0.2,0.6-0.3,0.9,0L48.4,83.8z"/>
            <path class="chevronGroup-5" d="M53.3,65.7l-1.7-5.4c-0.1-0.3-0.4-0.5-0.8-0.4c-0.3,0.1-0.5,0.4-0.4,0.8l1.3,4.1l-4.2,0.9 c-0.3,0.1-0.5,0.4-0.5,0.7c0.1,0.3,0.4,0.5,0.7,0.5L53.3,65.7z"/>
            <path class="chevronGroup-5" d="M66.2,53l1.2-5.5c0.1-0.3-0.1-0.7-0.5-0.7c-0.3-0.1-0.7,0.1-0.7,0.5l-0.9,4.2l-4.1-1.3 c-0.3-0.1-0.7,0.1-0.8,0.4c-0.1,0.3,0.1,0.7,0.4,0.8L66.2,53z"/>

            <!-- Chevron Group 6 -->
            <path class="chevronGroup-6" d="M83.8,53.3l3.8-4.1c0.2-0.2,0.2-0.6,0-0.9c-0.2-0.2-0.6-0.2-0.9,0l-2.9,3.2l-2.9-3.2c-0.2-0.2-0.6-0.3-0.9,0 c-0.2,0.2-0.3,0.6,0,0.9L83.8,53.3z"/>
            <path class="chevronGroup-6" d="M98.8,57.5l5.4-1.7c0.3-0.1,0.5-0.4,0.4-0.8c-0.1-0.3-0.4-0.5-0.8-0.4l-4.1,1.3l-0.9-4.2 c-0.1-0.3-0.4-0.5-0.7-0.5c-0.3,0.1-0.5,0.4-0.5,0.7L98.8,57.5z"/>
            <path class="chevronGroup-6" d="M109.7,68.6l5.5,1.2c0.3,0.1,0.7-0.1,0.7-0.5c0.1-0.3-0.1-0.7-0.5-0.7l-4.2-0.9l1.3-4.1 c0.1-0.3-0.1-0.7-0.4-0.8c-0.3-0.1-0.7,0.1-0.8,0.4L109.7,68.6z"/>
            <path class="chevronGroup-6" d="M113.6,83.8l4.1,3.8c0.2,0.2,0.6,0.2,0.9,0c0.2-0.2,0.2-0.6,0-0.9l-3.2-2.9l3.2-2.9c0.2-0.2,0.3-0.6,0-0.9 c-0.2-0.2-0.6-0.3-0.9,0L113.6,83.8z"/>
            <path class="chevronGroup-6" d="M109.7,98.3l5.5-1.2c0.3-0.1,0.7,0.1,0.7,0.5c0.1,0.3-0.1,0.7-0.5,0.7l-4.2,0.9l1.3,4.1 c0.1,0.3-0.1,0.7-0.4,0.8c-0.3,0.1-0.7-0.1-0.8-0.4L109.7,98.3z"/>
            <path class="chevronGroup-6" d="M98.8,109.4l5.4,1.7c0.3,0.1,0.5,0.4,0.4,0.8s-0.4,0.5-0.8,0.4l-4.1-1.3l-0.9,4.2c-0.1,0.3-0.4,0.5-0.7,0.5 c-0.3-0.1-0.5-0.4-0.5-0.7L98.8,109.4z"/>
            <path class="chevronGroup-6" d="M83.8,113.6l3.8,4.1c0.2,0.2,0.2,0.6,0,0.9c-0.2,0.2-0.6,0.2-0.9,0l-2.9-3.2l-2.9,3.2c-0.2,0.2-0.6,0.3-0.9,0 c-0.2-0.2-0.3-0.6,0-0.9L83.8,113.6z"/>
            <path class="chevronGroup-6" d="M68.6,109.7l1.2,5.5c0.1,0.3-0.1,0.7-0.5,0.7c-0.3,0.1-0.7-0.1-0.7-0.5l-0.9-4.2l-4.1,1.3 c-0.3,0.1-0.7-0.1-0.8-0.4c-0.1-0.3,0.1-0.7,0.4-0.8L68.6,109.7z"/>
            <path class="chevronGroup-6" d="M57.5,98.8l-1.7,5.4c-0.1,0.3-0.4,0.5-0.8,0.4c-0.3-0.1-0.5-0.4-0.4-0.8l1.3-4.1l-4.2-0.9 c-0.3-0.1-0.5-0.4-0.5-0.7c0.1-0.3,0.4-0.5,0.7-0.5L57.5,98.8z"/>
            <path class="chevronGroup-6" d="M53.3,83.8l-4.1,3.8c-0.2,0.2-0.6,0.2-0.9,0c-0.2-0.2-0.2-0.6,0-0.9l3.2-2.9l-3.2-2.9c-0.2-0.2-0.3-0.6,0-0.9 c0.2-0.2,0.6-0.3,0.9,0L53.3,83.8z"/>
            <path class="chevronGroup-6" d="M57.5,68.1l-1.7-5.4c-0.1-0.3-0.4-0.5-0.8-0.4c-0.3,0.1-0.5,0.4-0.4,0.8l1.3,4.1l-4.2,0.9 c-0.3,0.1-0.5,0.4-0.5,0.7c0.1,0.3,0.4,0.5,0.7,0.5L57.5,68.1z"/>
            <path class="chevronGroup-6" d="M68.6,57.2l1.2-5.5c0.1-0.3-0.1-0.7-0.5-0.7c-0.3-0.1-0.7,0.1-0.7,0.5l-0.9,4.2l-4.1-1.3 c-0.3-0.1-0.7,0.1-0.8,0.4c-0.1,0.3,0.1,0.7,0.4,0.8L68.6,57.2z"/>
        </g>
    </g>

    <!-- Logo -->
    <path
        fill="#fff"
        d="M76.4,95.5c0,0-6.6-10.1,0.1-23c0,0,13.1,0.2,20,11.5C96.5,84,90.2,95.2,76.4,95.5L76.4,95.5z M78.8,75
	    c-4.2,9,3.5,14.4,3.5,14.4c-1.8,1.8-4.8,2.9-4.8,2.9l0.1,0.3c0,0,10.4-2.3,11.4-10.8c1.4,0.5,2.8,1.3,4.2,2.7l0.2-0.2
	    C87.7,76.7,78.8,80,78.8,80s-0.4-2.6,0.4-5L78.8,75L78.8,75z"
    />
</svg>
